<svg width="60" height="60" viewBox="0 0 60 60" fill="none" xmlns="http://www.w3.org/2000/svg">
<path d="M29.66 39.96C39.9656 39.96 48.32 36.62 48.32 32.5C48.32 28.3799 39.9656 25.04 29.66 25.04C19.3544 25.04 11 28.3799 11 32.5C11 36.62 19.3544 39.96 29.66 39.96Z" stroke="#F1D675" stroke-miterlimit="10"/>
<path d="M29.66 42.8C39.9656 42.8 48.32 39.46 48.32 35.34C48.32 31.22 39.9656 27.88 29.66 27.88C19.3544 27.88 11 31.22 11 35.34C11 39.46 19.3544 42.8 29.66 42.8Z" stroke="#F1D675" stroke-miterlimit="10"/>
<path d="M37.4699 18C37.4699 20.45 35.2 20.45 35.2 22.91C35.2 25.36 37.4699 25.36 37.4699 27.82C37.4699 30.28 35.2 30.27 35.2 32.73" stroke="#F1D675" stroke-miterlimit="10"/>
<path d="M30.79 18C30.79 20.45 28.52 20.45 28.52 22.91C28.52 25.36 30.79 25.36 30.79 27.82C30.79 30.28 28.52 30.27 28.52 32.73" stroke="#F1D675" stroke-miterlimit="10"/>
<path d="M24.12 18C24.12 20.45 21.85 20.45 21.85 22.91C21.85 25.36 24.12 25.36 24.12 27.82C24.12 30.28 21.85 30.27 21.85 32.73" stroke="#F1D675" stroke-miterlimit="10"/>
</svg>
