<svg width="60" height="60" viewBox="0 0 60 60" fill="none" xmlns="http://www.w3.org/2000/svg">
<path d="M26.8845 28.58V26.48H29.9544V28.58H32.4944L30.3544 31.82H27.4944V30.07L26.8845 28.58Z" stroke="#769763" stroke-miterlimit="10" stroke-linecap="round" stroke-linejoin="round"/>
<path d="M36.7845 23.82V26.6L38.4745 27.69H41.1945C41.3945 26.9 41.5045 26.07 41.5045 25.22C41.5045 20.74 38.6144 16.95 34.6044 15.57V20.08L36.7845 23.82Z" stroke="#769763" stroke-miterlimit="10" stroke-linecap="round" stroke-linejoin="round"/>
<path d="M23.7444 26.48H26.6444V23.7L28.6345 21.54H30.6245L29.5345 18.99H26.6345V16.14C23.7645 17.61 21.6944 20.4 21.2044 23.7H22.5244L23.7444 26.48Z" stroke="#769763" stroke-miterlimit="10" stroke-linecap="round" stroke-linejoin="round"/>
<path d="M38.4745 27.68L36.7845 26.59V23.82L34.6144 20.08V15.56C33.5744 15.2 32.4644 15 31.3044 15C29.6244 15 28.0444 15.41 26.6444 16.13V18.98H29.5444L30.6345 21.53H28.6444L26.6544 23.69V26.47H23.7444L22.5345 23.69H21.2144C21.1444 24.19 21.0945 24.69 21.0945 25.21C21.0945 30.85 25.6644 35.42 31.3044 35.42C36.0944 35.42 40.0944 32.12 41.2044 27.68H38.4745V27.68Z" stroke="#769763" stroke-miterlimit="10" stroke-linecap="round" stroke-linejoin="round"/>
<path d="M44.0344 40.23C42.1344 37.75 44.0344 35.83 44.0344 35.83H19.3744C19.3744 35.83 17.4744 37.76 19.3744 40.23H44.0344Z" stroke="#769763" stroke-miterlimit="10" stroke-linecap="round" stroke-linejoin="round"/>
<path d="M32.7544 35.83C32.7544 35.83 30.8544 37.76 32.7544 40.23" stroke="#769763" stroke-miterlimit="10" stroke-linecap="round" stroke-linejoin="round"/>
<path d="M43.1945 38.03H35.5945" stroke="#769763" stroke-miterlimit="10" stroke-linecap="round" stroke-linejoin="round"/>
<path d="M41.5044 44.64C39.6044 42.16 41.5044 40.24 41.5044 40.24H16.8444C16.8444 40.24 14.9444 42.17 16.8444 44.64H41.5044V44.64Z" stroke="#769763" stroke-miterlimit="10" stroke-linecap="round" stroke-linejoin="round"/>
<path d="M30.2244 40.23C30.2244 40.23 28.3244 42.16 30.2244 44.63" stroke="#769763" stroke-miterlimit="10" stroke-linecap="round" stroke-linejoin="round"/>
<path d="M40.6645 42.44H33.0645" stroke="#769763" stroke-miterlimit="10" stroke-linecap="round" stroke-linejoin="round"/>
</svg>
