<svg width="60" height="60" viewBox="0 0 60 60" fill="none" xmlns="http://www.w3.org/2000/svg">
<path d="M34.02 40.77C29.64 41.18 28.63 34.8 32.92 33.83C31.18 29.79 36.93 26.85 39.18 30.64C42.49 27.73 47.05 32.3 44.15 35.61C47.94 37.85 45 43.61 40.96 41.87C39.99 46.17 33.61 45.16 34.02 40.77Z" stroke="#769763" stroke-miterlimit="10"/>
<path d="M38.3 38.35C39.3273 38.35 40.16 37.5173 40.16 36.49C40.16 35.4628 39.3273 34.63 38.3 34.63C37.2728 34.63 36.44 35.4628 36.44 36.49C36.44 37.5173 37.2728 38.35 38.3 38.35Z" stroke="#769763" stroke-miterlimit="10"/>
<path d="M39.62 35.17L41.32 33.47" stroke="#769763" stroke-miterlimit="10" stroke-linecap="round" stroke-linejoin="round"/>
<path d="M40.09 37.64L42.25 38.7" stroke="#769763" stroke-miterlimit="10" stroke-linecap="round" stroke-linejoin="round"/>
<path d="M36.25 32.69L37.3 34.86" stroke="#769763" stroke-miterlimit="10" stroke-linecap="round" stroke-linejoin="round"/>
<path d="M33.75 37.35L36.14 37.08" stroke="#769763" stroke-miterlimit="10" stroke-linecap="round" stroke-linejoin="round"/>
<path d="M37.45 41.05L37.71 38.65" stroke="#769763" stroke-miterlimit="10" stroke-linecap="round" stroke-linejoin="round"/>
<path d="M39.18 30.65L38.57 34.65" stroke="#769763" stroke-miterlimit="10" stroke-linecap="round" stroke-linejoin="round"/>
<path d="M32.92 33.84L36.56 35.85" stroke="#769763" stroke-miterlimit="10" stroke-linecap="round" stroke-linejoin="round"/>
<path d="M34.02 40.77L36.99 37.81" stroke="#769763" stroke-miterlimit="10"/>
<path d="M40.96 41.87L39.21 38.11" stroke="#769763" stroke-miterlimit="10"/>
<path d="M44.15 35.61L40.14 36.22" stroke="#769763" stroke-miterlimit="10"/>
<path d="M18.53 24.35C15.14 21.54 18.94 16.31 22.66 18.67C24.28 14.58 30.43 16.58 29.34 20.84C33.73 21.12 33.73 27.58 29.34 27.86C30.43 32.12 24.28 34.12 22.66 30.03C18.94 32.39 15.14 27.16 18.53 24.35Z" stroke="#769763" stroke-miterlimit="10"/>
<path d="M24.59 26.21C25.6172 26.21 26.45 25.3773 26.45 24.35C26.45 23.3228 25.6172 22.49 24.59 22.49C23.5627 22.49 22.73 23.3228 22.73 24.35C22.73 25.3773 23.5627 26.21 24.59 26.21Z" stroke="#769763" stroke-miterlimit="10"/>
<path d="M26.45 24.35H28.86" stroke="#769763" stroke-miterlimit="10" stroke-linecap="round" stroke-linejoin="round"/>
<path d="M25.04 26.43L25.82 28.7" stroke="#769763" stroke-miterlimit="10" stroke-linecap="round" stroke-linejoin="round"/>
<path d="M25.82 20.21L25.04 22.49" stroke="#769763" stroke-miterlimit="10" stroke-linecap="round" stroke-linejoin="round"/>
<path d="M20.76 21.74L22.64 23.24" stroke="#769763" stroke-miterlimit="10" stroke-linecap="round" stroke-linejoin="round"/>
<path d="M20.76 26.97L22.64 25.46" stroke="#769763" stroke-miterlimit="10" stroke-linecap="round" stroke-linejoin="round"/>
<path d="M29.34 20.84L26.07 23.24" stroke="#769763" stroke-miterlimit="10" stroke-linecap="round" stroke-linejoin="round"/>
<path d="M22.66 18.67L23.81 22.66" stroke="#769763" stroke-miterlimit="10" stroke-linecap="round" stroke-linejoin="round"/>
<path d="M18.53 24.35H22.72" stroke="#769763" stroke-miterlimit="10"/>
<path d="M22.66 30.03L24.09 26.14" stroke="#769763" stroke-miterlimit="10"/>
<path d="M29.34 27.86L26.08 25.46" stroke="#769763" stroke-miterlimit="10"/>
<path d="M25.66 37.33C25.66 37.33 23.58 40.2 20.36 40.95C17.14 41.7 14 40.06 14 40.06C14 40.06 16.08 37.19 19.3 36.44C22.52 35.69 25.66 37.33 25.66 37.33Z" stroke="#769763" stroke-miterlimit="10"/>
<path d="M37.54 25.43C37.54 25.43 36.83 21.96 38.45 19.08C40.07 16.2 43.4 15 43.4 15C43.4 15 44.11 18.47 42.49 21.35C40.87 24.23 37.54 25.43 37.54 25.43Z" stroke="#769763" stroke-miterlimit="10"/>
</svg>
