<svg width="60" height="60" viewBox="0 0 60 60" fill="none" xmlns="http://www.w3.org/2000/svg">
<path d="M35.0219 18.9558C34.4824 18.6839 33.9428 18.1401 33.673 17.5962C33.4033 17.0524 33.4033 16.5086 33.5332 16.2467C33.6631 15.9849 33.9128 16.0151 34.4524 16.287C34.992 16.5589 35.8213 17.0826 36.5107 17.0726C37.1902 17.0625 37.7297 16.5187 38.2793 16.3777C38.8189 16.2467 39.3584 16.5187 39.898 16.5187C40.4375 16.5187 40.9771 16.2467 41.5166 16.1057C42.0562 15.9648 42.5958 15.9648 42.8655 16.1057C43.1353 16.2467 43.1353 16.5187 43.4051 17.0625C43.6749 17.6063 44.2144 18.4221 44.2144 18.835C44.2144 19.2378 43.6749 19.2378 43.4051 19.5198C43.1353 19.7917 43.1353 20.3355 42.7256 21.0204C42.326 21.7052 41.5066 22.5209 41.2369 23.0648C40.9671 23.6086 41.2369 23.8805 41.6365 24.4244C42.0462 24.9682 42.5858 25.7839 42.7157 26.1968C42.8556 26.5997 42.5858 26.5997 42.0362 26.4688C41.4967 26.3278 40.6873 26.0559 40.0079 25.653C39.3384 25.2401 38.7889 24.6963 38.659 24.1524C38.5191 23.6086 38.7889 23.0648 38.3892 23.0648C37.9795 23.0648 36.9004 23.6086 36.231 23.7496C35.5515 23.8805 35.2817 23.6086 35.4216 22.7929C35.5615 21.9771 36.1011 20.6175 36.1011 19.9327C36.1011 19.2277 35.5615 19.2277 35.0219 18.9558Z" stroke="#769763" stroke-miterlimit="10"/>
<path d="M28.0077 27.4456C27.8778 27.3046 27.608 27.3046 27.3283 27.4456C27.0585 27.5866 26.7887 27.8485 26.379 27.9895C25.9694 28.1204 25.4298 28.1204 24.8903 27.9895C24.3507 27.8485 23.8111 27.5866 23.1317 27.4456C22.4522 27.3046 21.6429 27.3046 20.8336 27.4456C20.0242 27.5866 19.2149 27.8485 18.6753 27.8485C18.1358 27.8485 17.866 27.5766 17.7261 27.3046C17.5962 27.0327 17.5962 26.7608 17.4563 26.6198C17.3164 26.4788 17.0466 26.4788 16.7769 26.6198C16.5071 26.7507 16.2373 27.0227 16.0974 27.3046C15.9675 27.5766 15.9675 27.8485 16.0974 27.9895C16.2373 28.1204 16.5071 28.1204 16.637 28.2614C16.7769 28.3923 16.7769 28.6642 16.9068 28.9462C17.0367 29.2181 17.3064 29.49 17.4463 30.1749C17.5762 30.8597 17.5762 31.9474 17.4463 32.7631C17.3064 33.5789 17.0367 34.1227 17.0367 34.3946C17.0367 34.6665 17.3064 34.6665 17.7161 34.6665C18.1258 34.6665 18.6653 34.6665 19.065 34.7974C19.4747 34.9384 19.7445 35.2103 20.0142 35.7542C20.284 36.298 20.5538 37.1138 20.9634 37.6576C21.3731 38.2014 21.9127 38.4733 22.8519 38.4733C23.8011 38.4733 25.15 38.2014 25.8195 38.2014C26.4989 38.2014 26.4989 38.4733 26.4989 38.8862C26.4989 39.2891 26.4989 39.843 26.9086 40.2458C27.3183 40.6587 28.1276 40.9306 28.3974 41.3335C28.6672 41.7464 28.3974 42.2902 28.3974 42.6931C28.3974 43.106 28.6672 43.3779 29.0768 43.5088C29.4765 43.6397 30.026 43.6397 30.4257 43.7807C30.8354 43.9117 31.1052 44.1836 31.375 44.1836C31.6447 44.1836 31.9145 43.9117 32.1843 43.3678C32.4541 42.824 32.7239 42.0082 32.7239 41.4644C32.7239 40.9206 32.4541 40.6487 32.4541 40.3767C32.4541 40.1048 32.7238 39.8329 32.9936 39.561C33.2634 39.2891 33.5332 39.0172 33.4033 38.8862C33.2634 38.7452 32.7238 38.7453 32.1843 38.6143C31.6447 38.4733 31.1052 38.2014 30.6955 37.7986C30.2858 37.3857 30.0161 36.8418 29.7463 36.7109C29.4765 36.5699 29.2067 36.8418 28.6672 36.7109C28.1276 36.5699 27.3183 36.0261 27.0485 35.6233C26.7787 35.2204 27.0485 34.9384 27.0485 34.6665C27.0485 34.3946 26.7787 34.1227 26.6388 33.8508C26.4989 33.5789 26.4989 33.3069 26.7787 33.035C27.0485 32.7631 27.588 32.4912 27.9977 32.4912C28.4074 32.4912 28.6771 32.7631 28.807 32.7631C28.9369 32.7631 28.9369 32.4912 28.9369 32.2193C28.9369 31.9474 28.9369 31.6754 28.807 31.5344C28.6672 31.3935 28.3974 31.3935 28.1276 31.1215C27.8578 30.8496 27.588 30.3058 27.588 29.8929C27.588 29.49 27.8578 29.2081 27.9877 28.9361C28.1276 28.6642 28.1276 28.3923 28.1276 28.1204C28.1476 27.8585 28.1476 27.5866 28.0077 27.4456Z" stroke="#769763" stroke-miterlimit="10"/>
<path opacity="0.45" d="M35.0219 18.9558C34.4824 18.6839 33.9428 18.1401 33.673 17.5962C33.4033 17.0524 33.4033 16.5086 33.5332 16.2467C33.6631 15.9849 33.9128 16.0151 34.4524 16.287C34.992 16.5589 35.8213 17.0826 36.5107 17.0726C37.1902 17.0625 37.7297 16.5187 38.2793 16.3777C38.8189 16.2467 39.3584 16.5187 39.898 16.5187C40.4375 16.5187 40.9771 16.2467 41.5166 16.1057C42.0562 15.9648 42.5958 15.9648 42.8655 16.1057C43.1353 16.2467 43.1353 16.5187 43.4051 17.0625C43.6749 17.6063 44.2144 18.4221 44.2144 18.835C44.2144 19.2378 43.6749 19.2378 43.4051 19.5198C43.1353 19.7917 43.1353 20.3355 42.7256 21.0204C42.326 21.7052 41.5066 22.5209 41.2369 23.0648C40.9671 23.6086 41.2369 23.8805 41.6365 24.4244C42.0462 24.9682 42.5858 25.7839 42.7157 26.1968C42.8556 26.5997 42.5858 26.5997 42.0362 26.4688C41.4967 26.3278 40.6873 26.0559 40.0079 25.653C39.3384 25.2401 38.7889 24.6963 38.659 24.1524C38.5191 23.6086 38.7889 23.0648 38.3892 23.0648C37.9795 23.0648 36.9004 23.6086 36.231 23.7496C35.5515 23.8805 35.2817 23.6086 35.4216 22.7929C35.5615 21.9771 36.1011 20.6175 36.1011 19.9327C36.1011 19.2277 35.5615 19.2277 35.0219 18.9558Z" fill="#769763"/>
<path opacity="0.45" d="M28.0077 27.4456C27.8778 27.3046 27.608 27.3046 27.3283 27.4456C27.0585 27.5866 26.7887 27.8485 26.379 27.9895C25.9694 28.1204 25.4298 28.1204 24.8903 27.9895C24.3507 27.8485 23.8111 27.5866 23.1317 27.4456C22.4522 27.3046 21.6429 27.3046 20.8336 27.4456C20.0242 27.5866 19.2149 27.8485 18.6753 27.8485C18.1358 27.8485 17.866 27.5766 17.7261 27.3046C17.5962 27.0327 17.5962 26.7608 17.4563 26.6198C17.3164 26.4788 17.0466 26.4788 16.7769 26.6198C16.5071 26.7507 16.2373 27.0227 16.0974 27.3046C15.9675 27.5766 15.9675 27.8485 16.0974 27.9895C16.2373 28.1204 16.5071 28.1204 16.637 28.2614C16.7769 28.3923 16.7769 28.6642 16.9068 28.9462C17.0367 29.2181 17.3064 29.49 17.4463 30.1749C17.5762 30.8597 17.5762 31.9474 17.4463 32.7631C17.3064 33.5789 17.0367 34.1227 17.0367 34.3946C17.0367 34.6665 17.3064 34.6665 17.7161 34.6665C18.1258 34.6665 18.6653 34.6665 19.065 34.7974C19.4747 34.9384 19.7445 35.2103 20.0142 35.7542C20.284 36.298 20.5538 37.1138 20.9634 37.6576C21.3731 38.2014 21.9127 38.4733 22.8519 38.4733C23.8011 38.4733 25.15 38.2014 25.8195 38.2014C26.4989 38.2014 26.4989 38.4733 26.4989 38.8862C26.4989 39.2891 26.4989 39.843 26.9086 40.2458C27.3183 40.6587 28.1276 40.9306 28.3974 41.3335C28.6672 41.7464 28.3974 42.2902 28.3974 42.6931C28.3974 43.106 28.6672 43.3779 29.0768 43.5088C29.4765 43.6397 30.026 43.6397 30.4257 43.7807C30.8354 43.9117 31.1052 44.1836 31.375 44.1836C31.6447 44.1836 31.9145 43.9117 32.1843 43.3678C32.4541 42.824 32.7239 42.0082 32.7239 41.4644C32.7239 40.9206 32.4541 40.6487 32.4541 40.3767C32.4541 40.1048 32.7238 39.8329 32.9936 39.561C33.2634 39.2891 33.5332 39.0172 33.4033 38.8862C33.2634 38.7452 32.7238 38.7453 32.1843 38.6143C31.6447 38.4733 31.1052 38.2014 30.6955 37.7986C30.2858 37.3857 30.0161 36.8418 29.7463 36.7109C29.4765 36.5699 29.2067 36.8418 28.6672 36.7109C28.1276 36.5699 27.3183 36.0261 27.0485 35.6233C26.7787 35.2204 27.0485 34.9384 27.0485 34.6665C27.0485 34.3946 26.7787 34.1227 26.6388 33.8508C26.4989 33.5789 26.4989 33.3069 26.7787 33.035C27.0485 32.7631 27.588 32.4912 27.9977 32.4912C28.4074 32.4912 28.6771 32.7631 28.807 32.7631C28.9369 32.7631 28.9369 32.4912 28.9369 32.2193C28.9369 31.9474 28.9369 31.6754 28.807 31.5344C28.6672 31.3935 28.3974 31.3935 28.1276 31.1215C27.8578 30.8496 27.588 30.3058 27.588 29.8929C27.588 29.49 27.8578 29.2081 27.9877 28.9361C28.1276 28.6642 28.1276 28.3923 28.1276 28.1204C28.1476 27.8585 28.1476 27.5866 28.0077 27.4456Z" fill="#769763"/>
</svg>
