<svg width="60" height="60" viewBox="0 0 60 60" fill="none" xmlns="http://www.w3.org/2000/svg">
<path d="M47.57 27.27L43.09 22.84V17H47.57V27.27Z" stroke="#769763" stroke-miterlimit="10"/>
<path d="M32.48 43.36C32.48 40.35 30.73 37.75 28.19 36.52C29.47 35.53 30.3 33.98 30.3 32.24C30.3 29.25 27.87 26.82 24.88 26.82C21.89 26.82 19.46 29.25 19.46 32.24C19.46 33.98 20.29 35.53 21.57 36.52C19.03 37.75 17.28 40.35 17.28 43.36" stroke="#769763" stroke-miterlimit="10"/>
<path d="M44.09 43.36C44.09 41.08 42.76 39.12 40.85 38.19C41.82 37.44 42.44 36.27 42.44 34.95C42.44 32.69 40.61 30.86 38.35 30.86C36.09 30.86 34.26 32.69 34.26 34.95C34.26 36.27 34.89 37.44 35.85 38.19C33.93 39.12 32.61 41.08 32.61 43.36" stroke="#769763" stroke-miterlimit="10"/>
<path d="M47 43.93V32.74H49.94V29.79L38.96 18.63H21.98L11 29.79V32.74H13.95V43.93" stroke="#769763" stroke-miterlimit="10"/>
</svg>
