<svg width="20" height="20" viewBox="0 0 20 20" fill="none" xmlns="http://www.w3.org/2000/svg">
<path d="M18.7922 1.21868C18.6908 1.11782 18.5628 1.04798 18.4231 1.01739C18.2835 0.986797 18.138 0.996716 18.0037 1.04598L1.48458 7.05295C1.34211 7.10699 1.21946 7.20309 1.13291 7.32848C1.04635 7.45388 1 7.60265 1 7.75501C1 7.90738 1.04635 8.05614 1.13291 8.18154C1.21946 8.30694 1.34211 8.40304 1.48458 8.45708L8.69294 11.3404L11.5763 18.5488C11.6305 18.685 11.7233 18.8024 11.8434 18.8864C11.9635 18.9705 12.1055 19.0176 12.2521 19.0218C12.4038 19.0187 12.551 18.9697 12.6744 18.8812C12.7977 18.7928 12.8913 18.669 12.9429 18.5263L18.9498 2.00709C19.001 1.87425 19.0133 1.7296 18.9854 1.59C18.9575 1.45041 18.8905 1.32163 18.7922 1.21868ZM12.2521 16.1685L10.1571 10.9124L13.7538 7.31575L12.6951 6.25703L9.06838 9.88373L3.84231 7.75877L17.0051 3.00575L12.2521 16.1685Z" fill="white" fill-opacity="0.5"/>
<path d="M18.8283 1.18414L18.8283 1.18415C18.9332 1.29395 19.0047 1.43131 19.0344 1.5802C19.0642 1.72892 19.0511 1.88304 18.9967 2.0246C18.9966 2.02476 18.9966 2.02491 18.9965 2.02506L12.9899 18.5433L18.8283 1.18414ZM18.8283 1.18414L18.8274 1.18324M18.8283 1.18414L18.8274 1.18324M18.8274 1.18324C18.7193 1.07566 18.5828 1.00118 18.4338 0.968549C18.2849 0.935929 18.1298 0.94649 17.9867 0.99899V0.99899L17.9865 0.999041L1.46749 7.00596L1.46749 7.00596M18.8274 1.18324L1.46749 7.00596M1.46749 7.00596L1.46684 7.0062M1.46749 7.00596L1.46684 7.0062M1.46684 7.0062C1.31489 7.06383 1.18407 7.16633 1.09176 7.30008C0.999441 7.43383 0.95 7.5925 0.95 7.75501C0.95 7.91753 0.999441 8.0762 1.09176 8.20995C1.18399 8.34357 1.31465 8.446 1.46642 8.50367C1.46656 8.50372 1.4667 8.50378 1.46684 8.50383L8.65447 11.3789L11.5298 18.5673L1.46684 7.0062ZM12.2506 19.0719L12.2506 19.0718C12.0943 19.0673 11.9428 19.017 11.8147 18.9274C11.6867 18.8377 11.5876 18.7126 11.5299 18.5674L12.2506 19.0719ZM12.2506 19.0719L12.2531 19.0718M12.2506 19.0719L12.2531 19.0718M12.2531 19.0718C12.4149 19.0685 12.572 19.0162 12.7035 18.9219M12.2531 19.0718L12.7035 18.9219M12.7035 18.9219C12.835 18.8275 12.9348 18.6956 12.9899 18.5434L12.7035 18.9219ZM13.7892 7.35111L13.8245 7.31575L13.7892 7.2804L12.7304 6.22167L12.6951 6.18632L12.6597 6.22167L9.05648 9.82492L3.98187 7.76154L16.9219 3.08896L12.2498 16.0277L10.2158 10.9245L13.7892 7.35111Z" stroke="white" stroke-opacity="0.5" stroke-width="0.1"/>
</svg>
