<svg width="24" height="24" viewBox="0 0 24 24" fill="none" xmlns="http://www.w3.org/2000/svg">
<path d="M18.6909 10.5455C18.6909 15.6364 12.1454 20 12.1454 20C12.1454 20 5.59998 15.6364 5.59998 10.5455C5.59998 8.80949 6.28958 7.14463 7.51709 5.91712C8.74461 4.68961 10.4095 4 12.1454 4C13.8814 4 15.5463 4.68961 16.7738 5.91712C18.0013 7.14463 18.6909 8.80949 18.6909 10.5455Z" stroke="#769763" stroke-linecap="round" stroke-linejoin="round"/>
<path d="M12.1454 12.7273C13.3504 12.7273 14.3273 11.7505 14.3273 10.5455C14.3273 9.34049 13.3504 8.36366 12.1454 8.36366C10.9405 8.36366 9.96362 9.34049 9.96362 10.5455C9.96362 11.7505 10.9405 12.7273 12.1454 12.7273Z" stroke="#769763" stroke-linecap="round" stroke-linejoin="round"/>
</svg>
