<svg width="20" height="20" viewBox="0 0 20 20" fill="none" xmlns="http://www.w3.org/2000/svg">
<path d="M8.90703 5.69923L8.90887 5.70106L9.4638 6.25476L9.99472 6.78452L10.5245 6.25359L11.0691 5.70774C11.0694 5.70744 11.0697 5.70714 11.07 5.70684C11.3701 5.40828 11.726 5.17173 12.1175 5.01067C12.5094 4.84944 12.9292 4.76703 13.3529 4.76814C13.7767 4.76924 14.196 4.85384 14.5871 5.01711C14.9781 5.18037 15.3331 5.4191 15.6318 5.71964L15.6318 5.71964L15.6346 5.72239C16.2398 6.32506 16.581 7.14336 16.5833 7.99749C16.5855 8.85123 16.2489 9.67095 15.6473 10.2767C15.647 10.277 15.6467 10.2772 15.6465 10.2775L10.0223 15.8981L4.36716 10.2417L4.36585 10.2404C3.76029 9.6377 3.41887 8.81918 3.41664 7.96481C3.41441 7.11116 3.75099 6.29152 4.35243 5.68581C4.95815 5.08436 5.77778 4.74778 6.63144 4.75001C7.48581 4.75224 8.30433 5.09367 8.90703 5.69922L8.90703 5.69923Z" stroke="#769763" stroke-width="1.5"/>
</svg>
