<svg width="60" height="60" viewBox="0 0 60 60" fill="none" xmlns="http://www.w3.org/2000/svg">
<path d="M18.62 37.19V46.21" stroke="#F1D675" stroke-miterlimit="10" stroke-linecap="round" stroke-linejoin="round"/>
<path d="M16 46.21H21.25" stroke="#F1D675" stroke-miterlimit="10" stroke-linecap="round" stroke-linejoin="round"/>
<path d="M30.12 37.19V46.21" stroke="#F1D675" stroke-miterlimit="10" stroke-linecap="round" stroke-linejoin="round"/>
<path d="M27.5 46.21H32.74" stroke="#F1D675" stroke-miterlimit="10" stroke-linecap="round" stroke-linejoin="round"/>
<path d="M41.3 37.19V46.21" stroke="#F1D675" stroke-miterlimit="10" stroke-linecap="round" stroke-linejoin="round"/>
<path d="M38.68 46.21H43.92" stroke="#F1D675" stroke-miterlimit="10" stroke-linecap="round" stroke-linejoin="round"/>
<path d="M29.36 37.08C28.43 38.96 26.5 40.25 24.27 40.25C22.03 40.25 20.09 38.95 19.17 37.06" stroke="#F1D675" stroke-miterlimit="10" stroke-linecap="round" stroke-linejoin="round"/>
<path d="M40.78 37.3C39.82 39.06 37.95 40.25 35.8 40.25C33.61 40.25 31.71 39.01 30.77 37.2" stroke="#F1D675" stroke-miterlimit="10" stroke-linecap="round" stroke-linejoin="round"/>
<path d="M18.62 37.19C20.067 37.19 21.24 36.017 21.24 34.57C21.24 33.123 20.067 31.95 18.62 31.95C17.173 31.95 16 33.123 16 34.57C16 36.017 17.173 37.19 18.62 37.19Z" stroke="#F1D675" stroke-miterlimit="10" stroke-linecap="round" stroke-linejoin="round"/>
<path d="M30.12 37.19C31.567 37.19 32.74 36.017 32.74 34.57C32.74 33.123 31.567 31.95 30.12 31.95C28.673 31.95 27.5 33.123 27.5 34.57C27.5 36.017 28.673 37.19 30.12 37.19Z" stroke="#F1D675" stroke-miterlimit="10" stroke-linecap="round" stroke-linejoin="round"/>
<path d="M41.3 37.19C42.747 37.19 43.92 36.017 43.92 34.57C43.92 33.123 42.747 31.95 41.3 31.95C39.853 31.95 38.68 33.123 38.68 34.57C38.68 36.017 39.853 37.19 41.3 37.19Z" stroke="#F1D675" stroke-miterlimit="10" stroke-linecap="round" stroke-linejoin="round"/>
<path d="M39.98 16.84H19.89V28.11H39.98V16.84Z" stroke="#F1D675" stroke-miterlimit="10" stroke-linecap="round" stroke-linejoin="round"/>
<path d="M29.94 13L27.01 16.84H32.87L29.94 13Z" stroke="#F1D675" stroke-miterlimit="10" stroke-linecap="round" stroke-linejoin="round"/>
</svg>
