<svg width="60" height="60" viewBox="0 0 60 60" fill="none" xmlns="http://www.w3.org/2000/svg">
<path d="M26.8845 28.58V26.48H29.9545V28.58H32.4945L30.3545 31.82H27.4945V30.07L26.8845 28.58Z" stroke="#F1D675" stroke-miterlimit="10" stroke-linecap="round" stroke-linejoin="round"/>
<path d="M36.7845 23.82V26.6L38.4745 27.69H41.1945C41.3945 26.9 41.5045 26.07 41.5045 25.22C41.5045 20.74 38.6145 16.95 34.6045 15.57V20.08L36.7845 23.82Z" stroke="#F1D675" stroke-miterlimit="10" stroke-linecap="round" stroke-linejoin="round"/>
<path d="M23.7445 26.48H26.6445V23.7L28.6345 21.54H30.6245L29.5345 18.99H26.6345V16.14C23.7645 17.61 21.6945 20.4 21.2045 23.7H22.5245L23.7445 26.48Z" stroke="#F1D675" stroke-miterlimit="10" stroke-linecap="round" stroke-linejoin="round"/>
<path d="M38.4745 27.68L36.7845 26.59V23.82L34.6145 20.08V15.56C33.5745 15.2 32.4645 15 31.3045 15C29.6245 15 28.0445 15.41 26.6445 16.13V18.98H29.5445L30.6345 21.53H28.6445L26.6545 23.69V26.47H23.7445L22.5345 23.69H21.2145C21.1445 24.19 21.0945 24.69 21.0945 25.21C21.0945 30.85 25.6645 35.42 31.3045 35.42C36.0945 35.42 40.0945 32.12 41.2045 27.68H38.4745V27.68Z" stroke="#F1D675" stroke-miterlimit="10" stroke-linecap="round" stroke-linejoin="round"/>
<path d="M44.0345 40.23C42.1345 37.75 44.0345 35.83 44.0345 35.83H19.3745C19.3745 35.83 17.4745 37.76 19.3745 40.23H44.0345Z" stroke="#F1D675" stroke-miterlimit="10" stroke-linecap="round" stroke-linejoin="round"/>
<path d="M32.7545 35.83C32.7545 35.83 30.8545 37.76 32.7545 40.23" stroke="#F1D675" stroke-miterlimit="10" stroke-linecap="round" stroke-linejoin="round"/>
<path d="M43.1945 38.03H35.5945" stroke="#F1D675" stroke-miterlimit="10" stroke-linecap="round" stroke-linejoin="round"/>
<path d="M41.5044 44.64C39.6044 42.16 41.5044 40.24 41.5044 40.24H16.8444C16.8444 40.24 14.9444 42.17 16.8444 44.64H41.5044V44.64Z" stroke="#F1D675" stroke-miterlimit="10" stroke-linecap="round" stroke-linejoin="round"/>
<path d="M30.2244 40.23C30.2244 40.23 28.3244 42.16 30.2244 44.63" stroke="#F1D675" stroke-miterlimit="10" stroke-linecap="round" stroke-linejoin="round"/>
<path d="M40.6645 42.44H33.0645" stroke="#F1D675" stroke-miterlimit="10" stroke-linecap="round" stroke-linejoin="round"/>
</svg>
